<svg height="512pt" viewBox="-44 0 512 512.00039" width="512pt" xmlns="http://www.w3.org/2000/svg"><path d="m212.203125 7.601562c-78.09375 0-145.976563 98.101563-180.546875 196.09375-9.011719 25.542969 10.046875 52.304688 37.128906 52.304688h286.832032c27.085937 0 46.140624-26.761719 37.132812-52.304688-34.570312-97.992187-102.457031-196.09375-180.546875-196.09375zm0 0" fill="#d7d9cc"/><path d="m392.75 203.695312c-34.570312-97.992187-102.457031-196.09375-180.546875-196.09375-8.347656 0-16.574219 1.125-24.660156 3.25 67.5625 17.722657 125.015625 105.324219 155.890625 192.84375 9.011718 25.542969-10.046875 52.304688-37.128906 52.304688h49.3125c27.085937 0 46.140624-26.765625 37.132812-52.304688zm0 0" fill="#bebfb5"/><path d="m212.199219 504.402344c113.152343 0 204.875-64.539063 204.875-177.6875 0-11.375-.925781-23.6875-2.710938-36.632813-2.683593-19.507812-19.289062-34.082031-38.980469-34.082031h-326.367187c-19.691406 0-36.292969 14.574219-38.980469 34.082031-1.78125 12.945313-2.710937 25.257813-2.710937 36.628907.003906 113.152343 91.726562 177.691406 204.875 177.691406zm0 0" fill="#d7d9cc"/><path d="m414.367188 290.082031c-2.6875-19.507812-19.292969-34.082031-38.980469-34.082031h-49.316407c19.691407 0 36.296876 14.574219 38.980469 34.082031 1.785157 12.945313 2.710938 25.257813 2.710938 36.628907 0 104.804687-78.695313 167.894531-180.21875 176.632812 8.085937.695312 16.3125 1.054688 24.660156 1.054688 113.148437 0 204.875-64.535157 204.875-177.6875 0-11.371094-.929687-23.683594-2.710937-36.628907zm0 0" fill="#bebfb5"/><path d="m270.105469 231.605469 16.714843-28.953125c3.816407-6.613282-.953124-14.878906-8.589843-14.878906h-33.429688c-7.636719 0-12.410156 8.265624-8.589843 14.878906l16.714843 28.953125c3.816407 6.609375 13.359375 6.609375 17.179688 0zm0 0" fill="#f94b6c"/><path d="m56.648438 290.097656v28.898438c0 4.140625 3.355468 7.496094 7.496093 7.496094s7.496094-3.355469 7.496094-7.496094v-28.898438c0-4.140625-3.355469-7.496094-7.496094-7.496094s-7.496093 3.355469-7.496093 7.496094zm0 0"/><path d="m105.960938 290.097656v28.898438c0 4.140625 3.355468 7.496094 7.496093 7.496094s7.496094-3.355469 7.496094-7.496094v-28.898438c0-4.140625-3.355469-7.496094-7.496094-7.496094s-7.496093 3.355469-7.496093 7.496094zm0 0"/><path d="m155.273438 290.097656v28.898438c0 4.140625 3.355468 7.496094 7.496093 7.496094 4.144531 0 7.5-3.355469 7.5-7.496094v-28.898438c0-4.140625-3.355469-7.496094-7.5-7.496094-4.140625 0-7.496093 3.355469-7.496093 7.496094zm0 0"/><path d="m204.585938 290.097656v28.898438c0 4.140625 3.355468 7.496094 7.5 7.496094 4.140624 0 7.496093-3.355469 7.496093-7.496094v-28.898438c0-4.140625-3.355469-7.496094-7.496093-7.496094-4.144532 0-7.5 3.355469-7.5 7.496094zm0 0"/><path d="m253.902344 290.097656v28.898438c0 4.140625 3.355468 7.496094 7.496094 7.496094 4.140624 0 7.496093-3.355469 7.496093-7.496094v-28.898438c0-4.140625-3.355469-7.496094-7.496093-7.496094-4.140626 0-7.496094 3.355469-7.496094 7.496094zm0 0"/><path d="m303.214844 290.097656v28.898438c0 4.140625 3.355468 7.496094 7.496094 7.496094 4.144531 0 7.5-3.355469 7.5-7.496094v-28.898438c0-4.140625-3.355469-7.496094-7.5-7.496094-4.140626 0-7.496094 3.355469-7.496094 7.496094zm0 0"/><path d="m352.527344 290.097656v28.898438c0 4.140625 3.355468 7.496094 7.5 7.496094 4.140625 0 7.496094-3.355469 7.496094-7.496094v-28.898438c0-4.140625-3.355469-7.496094-7.496094-7.496094-4.144532 0-7.5 3.355469-7.5 7.496094zm0 0"/><path d="m276.480469 235.132812 16.714843-28.953124c6.703126-11.605469-1.660156-26.125-15.082031-26.125h-33.429687c-13.402344 0-21.792969 14.503906-15.082032 26.125l16.714844 28.953124c6.699219 11.605469 23.453125 11.621094 30.164063 0zm-31.800781-40.082031h33.433593c1.871094 0 3.035157 2.011719 2.097657 3.632813l-16.714844 28.953125c-.941406 1.625-3.265625 1.613281-4.195313 0l-16.714843-28.953125c-.941407-1.628906.234374-3.632813 2.09375-3.632813zm0 0"/><path d="m421.675781 288.835938c-2.578125-18.710938-16.140625-33.699219-33.558593-38.734376 12.726562-12.433593 17.945312-31.09375 11.582031-49.121093-52.230469-148.058594-163.496094-267.34375-279.035157-159.234375-3.023437 2.828125-3.179687 7.574218-.351562 10.597656s7.570312 3.183594 10.59375.351562c63.644531-59.546874 125.785156-45.800781 182.042969 20.824219 28.667969 33.949219 54.457031 80.988281 72.613281 132.449219 7.300781 20.703125-8.132812 42.316406-30.0625 42.316406h-286.832031c-21.960938 0-37.355469-21.640625-30.058594-42.316406 18.371094-52.082031 44.507813-99.523438 73.585937-133.589844 2.6875-3.148437 2.3125-7.878906-.835937-10.570312-3.148437-2.6875-7.878906-2.3125-10.566406.835937-30.246094 35.429688-57.355469 84.558594-76.324219 138.335938-6.355469 18.011719-1.15625 36.675781 11.582031 49.121093-17.414062 5.035157-30.980469 20.023438-33.554687 38.738282-33.261719 241.347656 275.195312 278.121094 381.679687 152.710937 2.679688-3.15625 2.292969-7.886719-.863281-10.566406s-7.886719-2.292969-10.566406.863281c-92.695313 109.167969-358.039063 85.277344-358.039063-105.355468 0-10.90625.886719-22.886719 2.640625-35.609376 2.167969-15.738281 15.734375-27.605468 31.554688-27.605468h326.367187c15.820313 0 29.382813 11.867187 31.550781 27.605468 5.78125 41.953126 2.855469 81.910157-18.480468 118.855469-2.070313 3.585938-.84375 8.171875 2.742187 10.242188 3.582031 2.070312 8.171875.84375 10.242188-2.742188 22.996093-39.828125 26.613281-82.960937 20.351562-128.402343zm0 0"/></svg>