<?xml version="1.0" encoding="UTF-8" standalone="no"?>
<svg
   xmlns:dc="http://purl.org/dc/elements/1.1/"
   xmlns:cc="http://creativecommons.org/ns#"
   xmlns:rdf="http://www.w3.org/1999/02/22-rdf-syntax-ns#"
   xmlns:svg="http://www.w3.org/2000/svg"
   xmlns="http://www.w3.org/2000/svg"
   xmlns:sodipodi="http://sodipodi.sourceforge.net/DTD/sodipodi-0.dtd"
   xmlns:inkscape="http://www.inkscape.org/namespaces/inkscape"
   inkscape:version="1.0 (1.0+r73+1)"
   sodipodi:docname="egg.svg"
   id="svg38"
   version="1.1"
   width="512pt"
   viewBox="-44 0 512 512.00039"
   height="512pt">
  <metadata
     id="metadata44">
    <rdf:RDF>
      <cc:Work
         rdf:about="">
        <dc:format>image/svg+xml</dc:format>
        <dc:type
           rdf:resource="http://purl.org/dc/dcmitype/StillImage" />
      </cc:Work>
    </rdf:RDF>
  </metadata>
  <defs
     id="defs42" />
  <sodipodi:namedview
     inkscape:current-layer="svg38"
     inkscape:window-maximized="0"
     inkscape:window-y="31"
     inkscape:window-x="998"
     inkscape:cy="341.33333"
     inkscape:cx="341.33333"
     inkscape:zoom="1.0795898"
     showgrid="false"
     id="namedview40"
     inkscape:window-height="1008"
     inkscape:window-width="918"
     inkscape:pageshadow="2"
     inkscape:pageopacity="0"
     guidetolerance="10"
     gridtolerance="10"
     objecttolerance="10"
     borderopacity="1"
     bordercolor="#666666"
     pagecolor="#ffffff" />
  <path
     id="path10"
     fill="#d7d9cc"
     d="M 168.7031,7.601562 C 90.609356,7.601562 22.726548,105.70312 -11.843765,203.69531 -20.855484,229.23828 -1.7968898,256 25.285142,256 H 312.11716 c 27.08594,0 46.14063,-26.76172 37.13281,-52.30469 C 314.67966,105.70312 246.79294,7.601562 168.7031,7.601562 Z m 0,0" />
  <path
     id="path12"
     fill="#bebfb5"
     d="M 349.24997,203.69531 C 314.67966,105.70312 246.79294,7.601562 168.7031,7.601562 c -8.34766,0 -16.57422,1.125 -24.66016,3.25 C 211.60544,28.574219 269.05857,116.17578 299.93357,203.69531 308.94529,229.23828 289.88669,256 262.80466,256 h 49.3125 c 27.08594,0 46.14063,-26.76563 37.13281,-52.30469 z m 0,0" />
  <path
     id="path14"
     fill="#d7d9cc"
     d="m 168.69919,504.40234 c 113.15235,0 204.875,-64.53906 204.875,-177.6875 0,-11.375 -0.92578,-23.6875 -2.71093,-36.63281 C 368.17966,270.57422 351.57419,256 331.88279,256 H 5.5156102 c -19.6914062,0 -36.2929692,14.57422 -38.9804692,34.08203 -1.78125,12.94531 -2.710937,25.25781 -2.710937,36.62891 0.0039,113.15234 91.726563,177.6914 204.874986,177.6914 z m 0,0" />
  <path
     id="path16"
     fill="#bebfb5"
     d="M 370.86716,290.08203 C 368.17966,270.57422 351.57419,256 331.88669,256 h -49.3164 c 19.6914,0 36.29687,14.57422 38.98047,34.08203 1.78515,12.94531 2.71093,25.25781 2.71093,36.62891 0,104.80468 -78.69531,167.89453 -180.21875,176.63281 8.08594,0.69531 16.3125,1.05469 24.66016,1.05469 113.14844,0 204.875,-64.53516 204.875,-177.6875 0,-11.3711 -0.92969,-23.6836 -2.71094,-36.62891 z m 0,0" />
  <path
     id="path18"
     fill="#f94b6c"
     d="m 226.60544,231.60547 16.71485,-28.95313 c 3.8164,-6.61328 -0.95313,-14.8789 -8.58985,-14.8789 h -33.42968 c -7.63672,0 -12.41016,8.26562 -8.58985,14.8789 l 16.71485,28.95313 c 3.8164,6.60937 13.35937,6.60937 17.17968,0 z m 0,0" />
  <path
     id="path20"
     d="m 13.148424,290.09766 v 28.89843 c 0,4.14063 3.355468,7.4961 7.496093,7.4961 4.140625,0 7.496094,-3.35547 7.496094,-7.4961 v -28.89843 c 0,-4.14063 -3.355469,-7.4961 -7.496094,-7.4961 -4.140625,0 -7.496093,3.35547 -7.496093,7.4961 z m 0,0" />
  <path
     id="path22"
     d="m 62.460924,290.09766 v 28.89843 c 0,4.14063 3.355468,7.4961 7.496093,7.4961 4.140624,0 7.496094,-3.35547 7.496094,-7.4961 v -28.89843 c 0,-4.14063 -3.35547,-7.4961 -7.496094,-7.4961 -4.140625,0 -7.496093,3.35547 -7.496093,7.4961 z m 0,0" />
  <path
     id="path24"
     d="m 111.77341,290.09766 v 28.89843 c 0,4.14063 3.35547,7.4961 7.4961,7.4961 4.14453,0 7.5,-3.35547 7.5,-7.4961 v -28.89843 c 0,-4.14063 -3.35547,-7.4961 -7.5,-7.4961 -4.14063,0 -7.4961,3.35547 -7.4961,7.4961 z m 0,0" />
  <path
     id="path26"
     d="m 161.08591,290.09766 v 28.89843 c 0,4.14063 3.35547,7.4961 7.5,7.4961 4.14063,0 7.4961,-3.35547 7.4961,-7.4961 v -28.89843 c 0,-4.14063 -3.35547,-7.4961 -7.4961,-7.4961 -4.14453,0 -7.5,3.35547 -7.5,7.4961 z m 0,0" />
  <path
     id="path28"
     d="m 210.40232,290.09766 v 28.89843 c 0,4.14063 3.35547,7.4961 7.49609,7.4961 4.14063,0 7.4961,-3.35547 7.4961,-7.4961 v -28.89843 c 0,-4.14063 -3.35547,-7.4961 -7.4961,-7.4961 -4.14062,0 -7.49609,3.35547 -7.49609,7.4961 z m 0,0" />
  <path
     id="path30"
     d="m 259.71482,290.09766 v 28.89843 c 0,4.14063 3.35547,7.4961 7.49609,7.4961 4.14453,0 7.5,-3.35547 7.5,-7.4961 v -28.89843 c 0,-4.14063 -3.35547,-7.4961 -7.5,-7.4961 -4.14062,0 -7.49609,3.35547 -7.49609,7.4961 z m 0,0" />
  <path
     id="path32"
     d="m 309.02732,290.09766 v 28.89843 c 0,4.14063 3.35547,7.4961 7.5,7.4961 4.14062,0 7.49609,-3.35547 7.49609,-7.4961 v -28.89843 c 0,-4.14063 -3.35547,-7.4961 -7.49609,-7.4961 -4.14453,0 -7.5,3.35547 -7.5,7.4961 z m 0,0" />
  <path
     id="path34"
     d="m 232.98044,235.13281 16.71485,-28.95312 c 6.70312,-11.60547 -1.66016,-26.125 -15.08203,-26.125 h -33.42969 c -13.40235,0 -21.79297,14.5039 -15.08203,26.125 l 16.71484,28.95312 c 6.69922,11.60547 23.45313,11.6211 30.16406,0 z m -31.80078,-40.08203 h 33.4336 c 1.87109,0 3.03515,2.01172 2.09765,3.63281 l -16.71484,28.95313 c -0.94141,1.625 -3.26563,1.61328 -4.19531,0 l -16.71485,-28.95313 c -0.9414,-1.6289 0.23438,-3.63281 2.09375,-3.63281 z m 0,0" />
  <path
     id="path36"
     d="m 378.17576,288.83594 c -2.57813,-18.71094 -16.14063,-33.69922 -33.5586,-38.73438 12.72656,-12.43359 17.94531,-31.09375 11.58203,-49.12109 C 303.96872,52.921875 192.7031,-66.363281 77.164051,41.746094 c -3.02344,2.828125 -3.17969,7.574218 -0.35157,10.597656 2.82813,3.023438 7.57032,3.183594 10.593745,0.351562 C 151.05076,-6.851562 213.19138,6.894531 269.44919,73.519531 c 28.66797,33.949219 54.45703,80.988279 72.61328,132.449219 7.30079,20.70312 -8.13281,42.31641 -30.0625,42.31641 H 25.167955 c -21.9609388,0 -37.35547,-21.64063 -30.0585951,-42.31641 C 13.480455,153.88672 39.617174,106.44531 68.695298,72.378906 c 2.6875,-3.148437 2.3125,-7.878906 -0.835937,-10.570312 -3.148437,-2.6875 -7.878906,-2.3125 -10.566406,0.835937 -30.246094,35.429688 -57.35546973,84.558589 -76.32422,138.335939 -6.355469,18.01172 -1.15625,36.67578 11.5820309,49.12109 -17.4140619,5.03516 -30.9804689,20.02344 -33.5546859,38.73828 -33.261719,241.34766 275.1953,278.1211 381.67968,152.71094 2.67968,-3.15625 2.29296,-7.88672 -0.86329,-10.56641 -3.15625,-2.67968 -7.88671,-2.29296 -10.5664,0.86329 -92.69531,109.16796 -358.039054,85.27734 -358.039054,-105.35547 0,-10.90625 0.886719,-22.88672 2.640625,-35.60938 2.167969,-15.73828 15.734375,-27.60547 31.5546882,-27.60547 H 331.76951 c 15.82031,0 29.38281,11.86719 31.55078,27.60547 5.78125,41.95313 2.85547,81.91016 -18.48047,118.85547 -2.07031,3.58594 -0.84375,8.17188 2.74219,10.24219 3.58203,2.07031 8.17187,0.84375 10.24218,-2.74219 22.9961,-39.82812 26.61328,-82.96094 20.35157,-128.40234 z m 0,0" />
</svg>
